<?xml version="1.0" standalone="no"?>
<!DOCTYPE svg PUBLIC "-//W3C//DTD SVG 20010904//EN"
 "http://www.w3.org/TR/2001/REC-SVG-20010904/DTD/svg10.dtd">
<svg version="1.0" xmlns="http://www.w3.org/2000/svg"
 width="1280.000000pt" height="1280.000000pt" viewBox="0 0 1280.000000 1280.000000"
 preserveAspectRatio="xMidYMid meet">
<metadata>
Created by potrace 1.14, written by Peter Selinger 2001-2017
</metadata>
<g transform="translate(0.000000,1280.000000) scale(0.100000,-0.100000)"
fill="#000000" stroke="none">
<path d="M5938 12785 c-2 -3 -40 -7 -84 -10 -43 -3 -95 -8 -114 -11 -19 -3
-53 -6 -75 -8 -22 -2 -59 -7 -82 -10 -80 -11 -128 -18 -148 -21 -11 -2 -40 -7
-65 -10 -58 -9 -79 -13 -110 -19 -42 -9 -74 -15 -105 -21 -26 -4 -219 -46
-280 -61 -11 -3 -31 -7 -45 -10 -14 -3 -38 -9 -55 -15 -16 -5 -73 -21 -125
-35 -52 -14 -122 -35 -155 -46 -33 -11 -67 -22 -75 -24 -23 -5 -132 -43 -155
-53 -24 -10 -186 -71 -200 -75 -5 -1 -27 -10 -49 -19 -21 -9 -40 -17 -43 -17
-2 0 -23 -8 -46 -19 -23 -10 -64 -29 -92 -41 -134 -58 -202 -90 -342 -162
-159 -81 -195 -100 -203 -108 -9 -9 -85 -51 -102 -57 -10 -3 -18 -9 -18 -14 0
-5 -6 -9 -12 -9 -10 -1 -125 -69 -218 -130 -128 -84 -215 -145 -218 -152 -2
-5 -8 -8 -12 -8 -8 0 -89 -58 -180 -128 -81 -63 -277 -221 -301 -243 -14 -13
-57 -51 -95 -84 -38 -33 -92 -82 -120 -110 -29 -27 -78 -75 -110 -107 -114
-109 -320 -333 -414 -448 -25 -30 -47 -57 -50 -60 -42 -38 -350 -460 -350
-479 0 -6 -4 -11 -8 -11 -5 0 -15 -12 -23 -27 -8 -16 -17 -30 -20 -33 -12 -11
-99 -151 -99 -160 0 -6 -4 -10 -10 -10 -5 0 -10 -5 -10 -10 0 -6 -16 -36 -35
-66 -19 -30 -35 -56 -35 -59 0 -2 -19 -37 -43 -77 -24 -40 -76 -138 -116 -218
-40 -80 -78 -151 -83 -157 -6 -7 -7 -13 -4 -13 4 0 0 -12 -8 -27 -17 -30 -107
-224 -108 -233 0 -6 -16 -48 -25 -70 -3 -8 -7 -17 -8 -20 -1 -3 -7 -18 -14
-35 -11 -29 -16 -41 -39 -95 -6 -14 -18 -50 -28 -80 -9 -30 -19 -59 -23 -65
-3 -5 -6 -12 -7 -15 0 -3 -3 -12 -7 -20 -9 -24 -81 -254 -82 -265 -1 -5 -9
-35 -19 -66 -9 -31 -18 -65 -20 -75 -2 -11 -10 -39 -17 -64 -7 -25 -13 -47
-14 -50 0 -3 -9 -39 -18 -80 -45 -193 -55 -245 -51 -252 3 -4 2 -8 -3 -8 -4 0
-8 -10 -9 -22 0 -13 -6 -54 -13 -93 -7 -38 -14 -83 -17 -100 -2 -16 -6 -39 -8
-50 -2 -12 -7 -48 -11 -80 -4 -33 -8 -71 -10 -84 -9 -53 -15 -109 -20 -171 -3
-36 -9 -103 -13 -150 -8 -101 -8 -827 1 -920 3 -36 8 -99 12 -140 3 -41 10
-103 16 -138 5 -35 7 -67 4 -73 -4 -5 -3 -9 2 -9 4 0 8 -12 9 -27 1 -28 20
-170 28 -209 2 -12 7 -37 10 -55 3 -19 10 -59 17 -89 6 -30 12 -64 14 -75 2
-11 4 -20 5 -20 1 0 3 -9 4 -20 2 -11 9 -47 16 -80 17 -72 17 -74 20 -80 4 -8
6 -16 14 -60 4 -22 13 -56 19 -75 6 -19 12 -39 13 -45 13 -61 74 -269 98 -335
19 -49 19 -51 31 -95 4 -16 11 -34 15 -40 4 -5 11 -23 15 -40 10 -37 9 -34 24
-70 7 -16 23 -57 36 -90 13 -33 29 -73 36 -90 7 -16 13 -32 14 -35 0 -3 11
-27 24 -55 12 -27 30 -68 39 -90 8 -22 23 -51 31 -65 9 -13 15 -27 15 -30 -4
-14 209 -425 286 -550 5 -8 30 -50 56 -93 63 -106 222 -342 304 -452 82 -110
171 -226 185 -241 6 -6 33 -39 60 -73 28 -33 53 -61 58 -61 4 0 7 -4 7 -10 0
-5 10 -20 22 -33 13 -13 66 -70 118 -127 139 -151 361 -369 485 -475 32 -27
63 -54 69 -60 47 -43 209 -172 301 -242 70 -54 91 -68 98 -65 4 1 7 -2 7 -7 0
-8 62 -54 139 -103 14 -9 31 -20 36 -25 6 -5 35 -24 65 -43 30 -19 57 -37 60
-40 9 -11 323 -197 415 -245 155 -83 446 -225 461 -225 3 0 33 -13 67 -29 62
-29 240 -101 250 -101 2 0 21 -7 41 -15 20 -8 39 -16 43 -17 5 -1 37 -12 73
-26 36 -13 70 -25 75 -26 6 -1 16 -5 22 -9 7 -5 13 -6 13 -3 0 2 24 -5 53 -15
28 -11 61 -22 72 -23 11 -2 42 -11 69 -21 26 -9 56 -18 65 -20 9 -2 78 -19
153 -39 76 -20 153 -38 170 -41 18 -3 60 -12 93 -20 33 -7 89 -19 125 -25 36
-6 85 -16 110 -20 50 -10 97 -17 168 -25 26 -3 54 -8 62 -10 8 -3 38 -7 65 -9
28 -3 78 -8 110 -12 33 -4 76 -8 95 -8 20 -1 40 -5 46 -8 13 -8 1076 -4 1124
5 19 3 62 8 95 12 96 9 299 35 315 40 16 5 48 10 120 20 24 4 47 8 50 10 4 2
29 7 56 10 27 3 63 10 79 15 17 4 48 12 70 16 22 4 45 8 50 10 6 2 19 5 30 7
11 3 38 10 60 15 22 6 51 13 65 16 14 3 39 9 57 15 17 5 34 7 37 3 3 -3 6 1 6
8 0 7 2 11 5 8 7 -6 223 55 254 71 12 7 21 10 21 7 0 -4 177 56 265 89 193 73
252 98 445 185 120 54 438 218 525 270 28 17 58 33 68 36 9 4 17 10 17 15 0 5
4 9 10 9 11 0 188 108 208 127 6 6 21 15 32 18 11 3 20 10 20 15 0 5 9 12 20
15 11 3 26 12 32 18 7 7 42 32 77 56 36 24 70 48 75 52 6 5 61 46 121 92 61
45 121 92 135 103 14 12 70 59 124 104 205 172 407 367 597 573 24 27 53 59
64 70 17 18 227 269 253 302 4 6 28 37 52 70 25 33 50 65 55 72 6 6 20 27 33
45 41 59 101 143 112 155 5 7 15 24 22 38 6 14 14 25 18 25 4 0 12 11 18 25 7
14 17 31 22 38 26 31 150 235 150 248 0 5 5 9 10 9 6 0 10 4 10 9 0 4 23 48
51 96 52 91 235 454 259 515 7 19 25 62 40 95 15 33 37 87 50 120 13 33 29 75
37 93 8 18 16 42 18 53 2 12 9 27 16 35 6 8 8 14 4 14 -4 0 -3 6 3 13 18 23
179 545 196 637 2 14 5 25 6 25 2 0 7 23 15 65 3 14 16 77 30 140 14 63 27
129 29 145 3 17 5 30 6 30 1 0 3 9 5 20 1 11 5 38 9 60 3 22 8 50 10 62 3 11
7 43 11 70 4 26 8 59 10 73 11 77 16 123 33 283 9 94 8 1073 -2 1157 -4 36 -9
83 -11 105 -2 22 -4 40 -5 40 -1 0 -3 20 -5 45 -3 25 -7 56 -10 70 -6 29 -17
124 -19 158 -1 12 -3 22 -6 22 -3 0 -6 8 -7 18 0 20 -11 95 -13 102 -2 3 -2 8
-2 11 1 4 -3 22 -9 40 -5 19 -11 49 -14 68 -2 18 -7 42 -11 53 -3 11 -7 30 -9
41 -2 12 -8 45 -15 72 -6 28 -12 57 -14 65 -1 9 -5 21 -10 28 -4 6 -5 12 -2
12 3 0 -1 18 -9 40 -8 22 -12 40 -10 40 3 0 0 12 -6 28 -6 15 -13 36 -15 47
-2 11 -13 52 -25 90 -11 39 -24 84 -28 100 -4 17 -13 40 -20 53 -6 12 -10 22
-8 22 3 0 -9 37 -25 83 -16 45 -30 87 -32 92 -2 6 -6 17 -9 25 -3 8 -22 59
-42 114 -19 54 -42 111 -51 127 -8 16 -15 32 -15 36 -1 5 -6 19 -12 33 -6 14
-11 27 -12 30 0 3 -11 27 -23 54 -12 27 -22 51 -22 53 0 7 -200 406 -237 473
-17 30 -39 71 -50 90 -11 19 -29 51 -39 70 -11 19 -22 37 -25 40 -3 3 -19 29
-35 57 -16 29 -32 53 -36 53 -5 0 -8 5 -8 10 0 16 -267 412 -290 430 -3 3 -17
21 -30 40 -13 19 -27 37 -30 40 -3 3 -21 25 -40 50 -70 90 -227 276 -310 365
-147 159 -416 419 -565 546 -22 19 -42 36 -45 39 -4 4 -61 50 -124 100 -10 8
-33 26 -50 40 -17 14 -49 39 -71 55 -22 16 -44 33 -50 38 -5 4 -35 26 -65 48
-30 21 -59 42 -65 47 -5 4 -37 25 -70 47 -33 22 -61 43 -63 48 -2 4 -8 7 -14
7 -6 0 -31 15 -57 34 -25 18 -68 46 -94 62 -27 16 -61 37 -75 46 -15 9 -38 23
-52 31 -47 25 -75 42 -80 47 -3 3 -21 13 -40 24 -19 10 -69 37 -110 59 -237
128 -574 281 -785 357 -49 18 -98 37 -109 42 -10 5 -28 12 -40 14 -27 7 -38
10 -56 17 -69 28 -405 126 -489 143 -14 3 -28 7 -31 9 -4 2 -20 7 -36 9 -29 6
-53 11 -96 21 -13 3 -34 8 -48 10 -14 3 -45 9 -70 15 -81 17 -94 20 -150 29
-62 11 -120 20 -165 26 -16 3 -41 7 -55 10 -14 3 -47 7 -75 10 -27 3 -66 7
-85 10 -19 3 -64 8 -100 11 -36 3 -87 8 -115 11 -58 7 -991 14 -997 8z"/>
</g>
</svg>
